<svg xmlns="http://www.w3.org/2000/svg"  viewBox="0 0 512 512" width="32px" height="32px"><path d="M 128.49414 53.5 A 10 10 0 0 0 128.49414 73.5 A 10 10 0 0 0 128.49414 53.5 z M 368.49414 73.5 A 10 10 0 0 0 368.49414 93.5 A 10 10 0 0 0 368.49414 73.5 z M 418.49609 108.50195 C 404.71109 108.50195 393.49609 119.71695 393.49609 133.50195 C 393.49609 147.28695 404.71109 158.50195 418.49609 158.50195 C 432.28109 158.50195 443.49609 147.28795 443.49609 133.50195 C 443.49609 119.71695 432.28109 108.50195 418.49609 108.50195 z M 137.23828 118.50195 L 232.80664 280.9668 C 233.72764 282.5308 233.72764 284.47311 232.80664 286.03711 L 137.23828 448.50195 L 295.64062 448.50195 L 392.69922 283.50195 L 295.64062 118.50195 L 137.23828 118.50195 z M 93.496094 198.50195 C 76.954094 198.50195 63.496094 211.95995 63.496094 228.50195 C 63.496094 245.04495 76.954094 258.50391 93.496094 258.50391 C 110.03809 258.50391 123.49609 245.04495 123.49609 228.50195 C 123.49609 211.95995 110.03809 198.50195 93.496094 198.50195 z M 438.5 233.5 A 10 10 0 0 0 438.5 253.5 A 10 10 0 0 0 438.5 233.5 z M 138.49414 303.5 A 10 10 0 0 0 138.49414 323.5 A 10 10 0 0 0 138.49414 303.5 z M 428.5 363.50586 A 10 10 0 0 0 428.5 383.50586 A 10 10 0 0 0 428.5 363.50586 z M 78.5 403.5 A 10 10 0 0 0 78.5 423.5 A 10 10 0 0 0 78.5 403.5 z M 398.49609 428.50391 C 390.22409 428.50391 383.49609 435.23291 383.49609 443.50391 C 383.49609 451.77591 390.22409 458.50391 398.49609 458.50391 C 406.76709 458.50391 413.49609 451.77591 413.49609 443.50391 C 413.49609 435.23191 406.76809 428.50391 398.49609 428.50391 z"/></svg>